<?xml version="1.0" standalone="no"?><!-- Generator: Gravit.io --><svg xmlns="http://www.w3.org/2000/svg" xmlns:xlink="http://www.w3.org/1999/xlink" style="isolation:isolate" viewBox="0 0 800 800" width="800" height="800"><g><circle vector-effect="non-scaling-stroke" cx="400" cy="400" r="400" fill="rgb(231,30,98)"/><g><path d=" M 296.055 281.572 L 455.56 281.572 C 472.107 281.572 485.541 294.877 485.541 311.265 L 485.541 311.265 C 485.541 327.653 472.107 340.958 455.56 340.958 L 296.055 340.958 C 279.508 340.958 266.074 327.653 266.074 311.265 L 266.074 311.265 C 266.074 294.877 279.508 281.572 296.055 281.572 Z " fill="rgb(253,216,67)"/><path d=" M 292.392 366.777 L 408.875 366.777 C 423.4 366.777 435.193 378.57 435.193 393.095 L 435.193 399.844 C 435.193 414.37 423.4 426.162 408.875 426.162 L 292.392 426.162 C 277.867 426.162 266.074 414.37 266.074 399.844 L 266.074 393.095 C 266.074 378.57 277.867 366.777 292.392 366.777 Z " fill="rgb(253,216,67)"/><path d=" M 299.475 451.982 L 505.07 451.982 C 523.505 451.982 538.471 465.287 538.471 481.674 L 538.471 481.674 C 538.471 498.062 523.505 511.367 505.07 511.367 L 299.475 511.367 C 281.041 511.367 266.074 498.062 266.074 481.674 L 266.074 481.674 C 266.074 465.287 281.041 451.982 299.475 451.982 Z " fill="rgb(253,216,67)"/><path d=" M 563.578 606.9 L 213.789 606.9 L 213.789 606.9 L 211.853 606.9 C 201.165 606.9 192.488 598.223 192.488 587.535 L 192.488 587.535 C 192.488 587.211 192.496 586.889 192.505 586.567 C 192.496 586.245 192.488 585.922 192.488 585.598 L 192.488 235.097 L 160.019 235.097 C 153.289 235.097 151.077 230.707 155.082 225.299 L 180.808 190.558 L 195.192 171.134 C 196.078 169.551 197.161 168.094 198.406 166.793 L 206.533 155.818 C 210.538 150.41 217.041 150.41 221.045 155.818 L 229.173 166.793 C 230.418 168.094 231.501 169.551 232.387 171.134 L 246.771 190.558 L 272.497 225.299 C 276.501 230.707 274.289 235.097 267.56 235.097 L 235.091 235.097 L 235.091 568.17 L 563.578 568.17 L 563.578 533.764 C 563.578 527.035 567.969 524.823 573.377 528.828 L 608.117 554.553 L 642.858 580.279 C 648.266 584.284 648.266 590.786 642.858 594.791 L 608.117 620.517 L 573.377 646.242 C 567.969 650.247 563.578 648.035 563.578 641.306 L 563.578 606.9 Z " fill="rgb(253,216,67)"/></g></g></svg>